<?xml version="1.0" standalone="no"?>
<!DOCTYPE svg PUBLIC "-//W3C//DTD SVG 20010904//EN"
 "http://www.w3.org/TR/2001/REC-SVG-20010904/DTD/svg10.dtd">
<svg version="1.0" xmlns="http://www.w3.org/2000/svg"
 width="800.000000pt" height="800.000000pt" viewBox="0 0 800.000000 800.000000"
 preserveAspectRatio="xMidYMid meet">
<metadata>
Created by potrace 1.11, written by Peter Selinger 2001-2013
</metadata>
<g transform="translate(0.000000,800.000000) scale(0.100000,-0.100000)"
fill="#000000" stroke="none">
<path d="M10 4000 l0 -4000 1035 0 1034 0 0 1518 c0 834 1 1542 1 1572 l0 55
284 -280 c277 -273 1471 -1456 2420 -2397 l471 -467 1294 -1 c712 0 1292 2
1290 5 -31 35 -1393 1388 -2069 2055 -153 151 -662 655 -1130 1120 -469 465
-892 885 -941 933 -49 48 -89 92 -89 96 0 8 222 231 577 578 83 81 354 348
603 593 248 245 527 519 620 610 93 91 381 375 642 631 733 722 973 958 1189
1169 109 107 199 198 199 203 0 4 -538 7 -1196 7 l-1196 0 -221 -219 c-122
-121 -286 -282 -364 -358 -78 -76 -336 -329 -574 -563 -237 -234 -469 -461
-514 -505 -45 -44 -283 -278 -529 -520 -641 -631 -759 -745 -763 -741 -2 2 -5
655 -6 1452 l-2 1449 -1032 3 -1033 2 0 -4000z"/>
</g>
</svg>
